<svg width="221.8" height="51.8" viewBox="0 0 221.8 51.8" xmlns="http://www.w3.org/2000/svg">
  <g id="svgGroup" stroke-linecap="round" fill-rule="evenodd" font-size="9pt" stroke="currentColor" stroke-width="0"
    fill="currentColor" style="stroke:#000;stroke-width:0;fill:currentColor">
    <path
      d="M 143 28.6 Q 141.3 29.2 139.8 28.65 Q 138.3 28.1 138.1 25.8 Q 138 23.6 140 22.7 Q 143.5 21.6 146.95 20.95 Q 150.4 20.3 153.9 20 Q 156.1 17.4 158.1 14.9 Q 160.1 12.4 161.8 10.1 Q 160.2 10.1 157.4 10.4 Q 154.6 10.7 151.45 11.2 Q 148.3 11.7 145.35 12.2 Q 142.4 12.7 140.5 13.1 Q 140 13.2 139.15 13.05 Q 138.3 12.9 137.5 12.6 Q 136.7 12.3 136.1 11.75 Q 135.5 11.2 135.5 10.6 Q 135.5 9.5 136.85 8.45 Q 138.2 7.4 139.6 6.9 Q 141 6.4 143.4 5.8 Q 145.8 5.2 148.8 4.7 Q 151.8 4.2 155.1 3.8 Q 158.4 3.4 161.6 3.2 Q 162.9 3.1 164.15 3.6 Q 165.4 4.1 166.35 4.95 Q 167.3 5.8 167.95 6.8 Q 168.6 7.8 168.8 8.8 Q 169.1 11.2 167.2 13.6 Q 166.1 15 164.85 16.5 Q 163.6 18 162.2 19.7 Q 165.2 19.8 168.15 20.1 Q 171.1 20.4 173.9 20.9 Q 174.6 21 175.75 21.25 Q 176.9 21.5 177.9 22 Q 178.9 22.5 179.55 23.2 Q 180.2 23.9 180.1 24.8 Q 179.8 26.8 178.05 27.25 Q 176.3 27.7 174.3 27.4 Q 170.4 26.8 165.9 26.6 Q 161.4 26.4 156.4 26.8 Q 153.6 30.3 150.75 33.95 Q 147.9 37.6 145.2 41.3 Q 148.9 41.2 153.7 40.95 Q 158.5 40.7 163.35 40.35 Q 168.2 40 172.7 39.65 Q 177.2 39.3 180.2 39 Q 181.6 39 182.25 39.45 Q 182.9 39.9 183.4 40.9 Q 183.6 41.7 183 43.1 Q 182.4 44.5 180.5 45.1 Q 176.6 45.6 171.75 46.1 Q 166.9 46.6 161.8 47 Q 156.7 47.4 151.7 47.65 Q 146.7 47.9 142.6 48 Q 140 47.9 138.75 47.4 Q 137.5 46.9 136.9 46 Q 136 44.8 136.3 43.3 Q 136.6 41.8 137.3 40.9 Q 139.5 37.7 142.05 34.4 Q 144.6 31.1 147.4 27.8 L 145.2 28.2 L 143 28.6 Z M 18 50.5 Q 17 50.1 15.95 49 Q 14.9 47.9 14.7 47.1 Q 14.2 45.1 13.6 42.2 Q 13 39.3 12.4 36 Q 11.8 32.7 11.25 29.25 Q 10.7 25.8 10.2 22.65 Q 9.7 19.5 9.4 17 Q 9.1 14.5 9 13 Q 9 11.4 10.1 11.2 Q 12.7 10.9 13.8 13.1 Q 14.3 14.9 14.9 17.2 Q 15.5 19.5 16.1 22.2 Q 18.5 21.3 20.4 19.9 Q 22.3 18.5 23.55 16.85 Q 24.8 15.2 25.35 13.45 Q 25.9 11.7 25.5 10 Q 25 8.1 22.7 7.2 Q 20.4 6.3 17.5 6.3 Q 13.5 6.3 10.35 7.75 Q 7.2 9.2 4.6 11.3 Q 3.4 12.2 1.95 11.85 Q 0.5 11.5 0 10 Q 0 8.6 0.5 7.6 Q 1 6.6 1.8 5.8 Q 4.9 2.6 9.15 1.3 Q 13.4 0 18.1 0 Q 21.9 0 25.45 1.2 Q 29 2.4 31.5 5.5 Q 32.7 7.5 32.75 9.7 Q 32.8 11.9 32.1 14 Q 31.4 16.1 30.15 18 Q 28.9 19.9 27.6 21.3 Q 30.1 21.1 32.7 21.75 Q 35.3 22.4 37.35 23.95 Q 39.4 25.5 40.7 28 Q 42 30.5 42 34 Q 42 38 40.25 41.3 Q 38.5 44.6 35.65 46.9 Q 32.8 49.2 29.15 50.5 Q 25.5 51.8 21.6 51.8 Q 19.9 51.8 18.9 50.8 Q 18.4 50.8 18 50.5 Z M 53.9 7 Q 54.4 10.4 55 14.05 Q 55.6 17.7 56.2 21.9 Q 60.8 19 65.85 16.05 Q 70.9 13.1 75.3 11.3 Q 75.7 11.2 76.35 11.25 Q 77 11.3 77.7 11.55 Q 78.4 11.8 78.9 12.2 Q 79.4 12.6 79.6 13.2 Q 79.8 13.9 79.3 15.05 Q 78.8 16.2 78.2 16.4 Q 77 17.1 75.05 18.25 Q 73.1 19.4 70.95 20.7 Q 68.8 22 66.75 23.3 Q 64.7 24.6 63.3 25.5 Q 69 28.6 74.45 30.8 Q 79.9 33 86 34.4 Q 86.6 34.5 87.25 35.15 Q 87.9 35.8 88.3 36.7 Q 88.7 37.6 88.75 38.5 Q 88.8 39.4 88.3 40.1 Q 87.7 40.9 86.65 41.05 Q 85.6 41.2 84.5 41 Q 76.9 39.2 70.6 36.55 Q 64.3 33.9 57.4 30.1 Q 57.9 34.4 58.35 39 Q 58.8 43.6 59.2 48.7 Q 59.2 49.8 58.3 49.95 Q 57.4 50.1 56.3 49.9 Q 55.2 49.7 54.3 49.2 Q 53.4 48.7 53.2 48.2 Q 52.6 43.6 51.95 38.5 Q 51.3 33.4 50.5 28.15 Q 49.7 22.9 48.8 17.75 Q 47.9 12.6 47 7.9 Q 46.8 6.8 47.5 5.35 Q 48.2 3.9 50.1 3.7 Q 50.8 3.7 51.45 4.05 Q 52.1 4.4 52.65 4.95 Q 53.2 5.5 53.5 6.05 Q 53.8 6.6 53.9 7 Z M 128.1 28.4 Q 127.5 31.2 125.95 33.75 Q 124.4 36.3 122.4 38.5 Q 120.4 40.7 118.05 42.3 Q 115.7 43.9 113.3 44.8 Q 108.9 46.4 104.55 45.85 Q 100.2 45.3 96.8 41.9 Q 94.5 39.1 93.55 35.6 Q 92.6 32.1 92.65 28.45 Q 92.7 24.8 93.65 21.4 Q 94.6 18 96.1 15.3 Q 97.9 12.1 100.4 10 Q 102.9 7.9 105.9 7.5 Q 106.7 7.3 107.2 7.9 Q 107.7 8.5 107.7 9.3 Q 108.7 8.3 110.8 7.8 Q 112.9 7.3 115.5 7.7 Q 120.3 8.3 123.1 10.6 Q 125.9 12.9 127.25 15.95 Q 128.6 19 128.65 22.35 Q 128.7 25.7 128.1 28.4 Z M 200.7 41 Q 200.8 41.4 200.8 42.15 Q 200.8 42.9 200.5 43.65 Q 200.2 44.4 199.65 44.95 Q 199.1 45.5 198.1 45.5 Q 195.9 44.1 194.4 41.8 Q 193.6 38.8 192.95 34.9 Q 192.3 31 191.9 26.75 Q 191.5 22.5 191.35 18.1 Q 191.2 13.7 191.3 9.6 Q 191.3 8.9 191.45 7.8 Q 191.6 6.7 192 5.65 Q 192.4 4.6 193 3.85 Q 193.6 3.1 194.7 3.1 Q 196 3.1 196.8 3.9 Q 197.6 4.7 197.6 6.5 Q 197.5 10.5 197.65 15.05 Q 197.8 19.6 198.2 24.2 Q 198.6 28.8 199.25 33.15 Q 199.9 37.5 200.7 41 Z M 221.7 41 Q 221.8 41.4 221.8 42.15 Q 221.8 42.9 221.5 43.65 Q 221.2 44.4 220.65 44.95 Q 220.1 45.5 219.1 45.5 Q 216.9 44.1 215.4 41.8 Q 214.6 38.8 213.95 34.9 Q 213.3 31 212.9 26.75 Q 212.5 22.5 212.35 18.1 Q 212.2 13.7 212.3 9.6 Q 212.3 8.9 212.45 7.8 Q 212.6 6.7 213 5.65 Q 213.4 4.6 214 3.85 Q 214.6 3.1 215.7 3.1 Q 217 3.1 217.8 3.9 Q 218.6 4.7 218.6 6.5 Q 218.5 10.5 218.65 15.05 Q 218.8 19.6 219.2 24.2 Q 219.6 28.8 220.25 33.15 Q 220.9 37.5 221.7 41 Z M 106.3 14.6 Q 104.3 15.5 102.95 17.25 Q 101.6 19 100.75 21.2 Q 99.9 23.4 99.65 25.95 Q 99.4 28.5 99.6 30.9 Q 99.9 34.4 101.7 36.65 Q 103.5 38.9 107.3 38.9 Q 109.5 38.9 111.65 38.05 Q 113.8 37.2 115.6 35.8 Q 117.4 34.4 118.9 32.45 Q 120.4 30.5 121.3 28.4 Q 121.8 27.3 122.1 25.65 Q 122.4 24 122.3 22.25 Q 122.2 20.5 121.5 18.9 Q 120.8 17.3 119.3 16.2 Q 117.2 14.7 114.3 14.4 Q 111.4 14.1 108.2 15.7 Q 107.6 16.1 106.85 15.85 Q 106.1 15.6 106.3 14.6 Z M 20.6 46 L 21 46 Q 23.2 46 25.85 45.2 Q 28.5 44.4 30.8 42.85 Q 33.1 41.3 34.6 39.05 Q 36.1 36.8 36 34 Q 35.5 31.5 33.7 30.2 Q 31.9 28.9 29.35 28.5 Q 26.8 28.1 23.75 28.45 Q 20.7 28.8 17.6 29.5 Q 18.4 33.4 19.1 37.6 Q 19.8 41.8 20.6 46 Z"
      vector-effect="non-scaling-stroke" />
  </g>
</svg>